<mxfile host="app.diagrams.net" modified="2023-03-22T17:55:04.502Z" agent="5.0 (Windows NT 10.0; Win64; x64) AppleWebKit/537.36 (KHTML, like Gecko) Chrome/111.0.0.0 Safari/537.36" etag="9dEyjbQ1ZNCuB48qgaAD" version="21.0.6" type="github">
  <diagram name="Сторінка-1" id="e6Mg030f7837-Gy0hzYY">
    <mxGraphModel dx="1050" dy="523" grid="1" gridSize="10" guides="1" tooltips="1" connect="1" arrows="1" fold="1" page="1" pageScale="1" pageWidth="827" pageHeight="1169" math="0" shadow="0">
      <root>
        <mxCell id="0" />
        <mxCell id="1" parent="0" />
        <mxCell id="kr0ckBWHbC9D2FNmbtgN-5" style="edgeStyle=orthogonalEdgeStyle;rounded=0;orthogonalLoop=1;jettySize=auto;html=1;exitX=1;exitY=0.5;exitDx=0;exitDy=0;entryX=0.5;entryY=0;entryDx=0;entryDy=0;" edge="1" parent="1" source="kr0ckBWHbC9D2FNmbtgN-1" target="kr0ckBWHbC9D2FNmbtgN-3">
          <mxGeometry relative="1" as="geometry" />
        </mxCell>
        <mxCell id="kr0ckBWHbC9D2FNmbtgN-6" style="edgeStyle=orthogonalEdgeStyle;rounded=0;orthogonalLoop=1;jettySize=auto;html=1;exitX=0;exitY=0.5;exitDx=0;exitDy=0;" edge="1" parent="1" source="kr0ckBWHbC9D2FNmbtgN-1" target="kr0ckBWHbC9D2FNmbtgN-2">
          <mxGeometry relative="1" as="geometry" />
        </mxCell>
        <mxCell id="kr0ckBWHbC9D2FNmbtgN-1" value="Промисловість" style="rounded=1;whiteSpace=wrap;html=1;" vertex="1" parent="1">
          <mxGeometry x="360" y="280" width="120" height="40" as="geometry" />
        </mxCell>
        <mxCell id="kr0ckBWHbC9D2FNmbtgN-12" style="edgeStyle=orthogonalEdgeStyle;rounded=0;orthogonalLoop=1;jettySize=auto;html=1;exitX=0.5;exitY=1;exitDx=0;exitDy=0;entryX=1;entryY=0.5;entryDx=0;entryDy=0;" edge="1" parent="1" source="kr0ckBWHbC9D2FNmbtgN-2" target="kr0ckBWHbC9D2FNmbtgN-7">
          <mxGeometry relative="1" as="geometry" />
        </mxCell>
        <mxCell id="kr0ckBWHbC9D2FNmbtgN-13" style="edgeStyle=orthogonalEdgeStyle;rounded=0;orthogonalLoop=1;jettySize=auto;html=1;exitX=0.5;exitY=1;exitDx=0;exitDy=0;entryX=1;entryY=0.5;entryDx=0;entryDy=0;" edge="1" parent="1" source="kr0ckBWHbC9D2FNmbtgN-2" target="kr0ckBWHbC9D2FNmbtgN-8">
          <mxGeometry relative="1" as="geometry" />
        </mxCell>
        <mxCell id="kr0ckBWHbC9D2FNmbtgN-14" style="edgeStyle=orthogonalEdgeStyle;rounded=0;orthogonalLoop=1;jettySize=auto;html=1;exitX=0.5;exitY=1;exitDx=0;exitDy=0;entryX=1;entryY=0.5;entryDx=0;entryDy=0;" edge="1" parent="1" source="kr0ckBWHbC9D2FNmbtgN-2" target="kr0ckBWHbC9D2FNmbtgN-9">
          <mxGeometry relative="1" as="geometry" />
        </mxCell>
        <mxCell id="kr0ckBWHbC9D2FNmbtgN-15" style="edgeStyle=orthogonalEdgeStyle;rounded=0;orthogonalLoop=1;jettySize=auto;html=1;exitX=0.5;exitY=1;exitDx=0;exitDy=0;entryX=1;entryY=0.5;entryDx=0;entryDy=0;" edge="1" parent="1" source="kr0ckBWHbC9D2FNmbtgN-2" target="kr0ckBWHbC9D2FNmbtgN-10">
          <mxGeometry relative="1" as="geometry" />
        </mxCell>
        <mxCell id="kr0ckBWHbC9D2FNmbtgN-16" style="edgeStyle=orthogonalEdgeStyle;rounded=0;orthogonalLoop=1;jettySize=auto;html=1;exitX=0.5;exitY=1;exitDx=0;exitDy=0;entryX=1;entryY=0.5;entryDx=0;entryDy=0;" edge="1" parent="1" source="kr0ckBWHbC9D2FNmbtgN-2" target="kr0ckBWHbC9D2FNmbtgN-11">
          <mxGeometry relative="1" as="geometry" />
        </mxCell>
        <mxCell id="kr0ckBWHbC9D2FNmbtgN-2" value="Видобувна" style="rounded=1;whiteSpace=wrap;html=1;" vertex="1" parent="1">
          <mxGeometry x="240" y="360" width="120" height="40" as="geometry" />
        </mxCell>
        <mxCell id="kr0ckBWHbC9D2FNmbtgN-25" style="edgeStyle=orthogonalEdgeStyle;rounded=0;orthogonalLoop=1;jettySize=auto;html=1;exitX=0.5;exitY=1;exitDx=0;exitDy=0;entryX=0;entryY=0.5;entryDx=0;entryDy=0;" edge="1" parent="1" source="kr0ckBWHbC9D2FNmbtgN-3" target="kr0ckBWHbC9D2FNmbtgN-17">
          <mxGeometry relative="1" as="geometry" />
        </mxCell>
        <mxCell id="kr0ckBWHbC9D2FNmbtgN-26" style="edgeStyle=orthogonalEdgeStyle;rounded=0;orthogonalLoop=1;jettySize=auto;html=1;exitX=0.5;exitY=1;exitDx=0;exitDy=0;entryX=0;entryY=0.5;entryDx=0;entryDy=0;" edge="1" parent="1" source="kr0ckBWHbC9D2FNmbtgN-3" target="kr0ckBWHbC9D2FNmbtgN-18">
          <mxGeometry relative="1" as="geometry" />
        </mxCell>
        <mxCell id="kr0ckBWHbC9D2FNmbtgN-28" style="edgeStyle=orthogonalEdgeStyle;rounded=0;orthogonalLoop=1;jettySize=auto;html=1;exitX=0.5;exitY=1;exitDx=0;exitDy=0;entryX=0;entryY=0.5;entryDx=0;entryDy=0;" edge="1" parent="1" source="kr0ckBWHbC9D2FNmbtgN-3" target="kr0ckBWHbC9D2FNmbtgN-20">
          <mxGeometry relative="1" as="geometry" />
        </mxCell>
        <mxCell id="kr0ckBWHbC9D2FNmbtgN-29" style="edgeStyle=orthogonalEdgeStyle;rounded=0;orthogonalLoop=1;jettySize=auto;html=1;exitX=0.5;exitY=1;exitDx=0;exitDy=0;entryX=0;entryY=0.5;entryDx=0;entryDy=0;" edge="1" parent="1" source="kr0ckBWHbC9D2FNmbtgN-3" target="kr0ckBWHbC9D2FNmbtgN-19">
          <mxGeometry relative="1" as="geometry" />
        </mxCell>
        <mxCell id="kr0ckBWHbC9D2FNmbtgN-34" style="edgeStyle=orthogonalEdgeStyle;rounded=0;orthogonalLoop=1;jettySize=auto;html=1;exitX=0.5;exitY=1;exitDx=0;exitDy=0;entryX=1;entryY=0.5;entryDx=0;entryDy=0;" edge="1" parent="1" source="kr0ckBWHbC9D2FNmbtgN-3" target="kr0ckBWHbC9D2FNmbtgN-24">
          <mxGeometry relative="1" as="geometry" />
        </mxCell>
        <mxCell id="kr0ckBWHbC9D2FNmbtgN-35" style="edgeStyle=orthogonalEdgeStyle;rounded=0;orthogonalLoop=1;jettySize=auto;html=1;exitX=0.5;exitY=1;exitDx=0;exitDy=0;entryX=1;entryY=0.5;entryDx=0;entryDy=0;" edge="1" parent="1" source="kr0ckBWHbC9D2FNmbtgN-3" target="kr0ckBWHbC9D2FNmbtgN-23">
          <mxGeometry relative="1" as="geometry" />
        </mxCell>
        <mxCell id="kr0ckBWHbC9D2FNmbtgN-36" style="edgeStyle=orthogonalEdgeStyle;rounded=0;orthogonalLoop=1;jettySize=auto;html=1;exitX=0.5;exitY=1;exitDx=0;exitDy=0;entryX=1;entryY=0.5;entryDx=0;entryDy=0;" edge="1" parent="1" source="kr0ckBWHbC9D2FNmbtgN-3" target="kr0ckBWHbC9D2FNmbtgN-22">
          <mxGeometry relative="1" as="geometry" />
        </mxCell>
        <mxCell id="kr0ckBWHbC9D2FNmbtgN-37" style="edgeStyle=orthogonalEdgeStyle;rounded=0;orthogonalLoop=1;jettySize=auto;html=1;exitX=0.5;exitY=1;exitDx=0;exitDy=0;entryX=1;entryY=0.5;entryDx=0;entryDy=0;" edge="1" parent="1" source="kr0ckBWHbC9D2FNmbtgN-3" target="kr0ckBWHbC9D2FNmbtgN-21">
          <mxGeometry relative="1" as="geometry" />
        </mxCell>
        <mxCell id="kr0ckBWHbC9D2FNmbtgN-3" value="Обробна" style="rounded=1;whiteSpace=wrap;html=1;" vertex="1" parent="1">
          <mxGeometry x="480" y="360" width="120" height="40" as="geometry" />
        </mxCell>
        <mxCell id="kr0ckBWHbC9D2FNmbtgN-7" value="Нафтова" style="rounded=1;whiteSpace=wrap;html=1;" vertex="1" parent="1">
          <mxGeometry x="160" y="440" width="120" height="40" as="geometry" />
        </mxCell>
        <mxCell id="kr0ckBWHbC9D2FNmbtgN-8" value="Вугільна" style="rounded=1;whiteSpace=wrap;html=1;" vertex="1" parent="1">
          <mxGeometry x="160" y="500" width="120" height="40" as="geometry" />
        </mxCell>
        <mxCell id="kr0ckBWHbC9D2FNmbtgN-9" value="Газова" style="rounded=1;whiteSpace=wrap;html=1;" vertex="1" parent="1">
          <mxGeometry x="160" y="560" width="120" height="40" as="geometry" />
        </mxCell>
        <mxCell id="kr0ckBWHbC9D2FNmbtgN-10" value="Сланцева" style="rounded=1;whiteSpace=wrap;html=1;" vertex="1" parent="1">
          <mxGeometry x="160" y="620" width="120" height="40" as="geometry" />
        </mxCell>
        <mxCell id="kr0ckBWHbC9D2FNmbtgN-11" value="Гірничо-хімічна" style="rounded=1;whiteSpace=wrap;html=1;" vertex="1" parent="1">
          <mxGeometry x="160" y="680" width="120" height="40" as="geometry" />
        </mxCell>
        <mxCell id="kr0ckBWHbC9D2FNmbtgN-17" value="Металургійна" style="rounded=1;whiteSpace=wrap;html=1;" vertex="1" parent="1">
          <mxGeometry x="560" y="440" width="120" height="40" as="geometry" />
        </mxCell>
        <mxCell id="kr0ckBWHbC9D2FNmbtgN-18" value="Машинобудівна" style="rounded=1;whiteSpace=wrap;html=1;" vertex="1" parent="1">
          <mxGeometry x="560" y="500" width="120" height="40" as="geometry" />
        </mxCell>
        <mxCell id="kr0ckBWHbC9D2FNmbtgN-19" value="Хімічна" style="rounded=1;whiteSpace=wrap;html=1;" vertex="1" parent="1">
          <mxGeometry x="560" y="560" width="120" height="40" as="geometry" />
        </mxCell>
        <mxCell id="kr0ckBWHbC9D2FNmbtgN-20" value="Легка" style="rounded=1;whiteSpace=wrap;html=1;" vertex="1" parent="1">
          <mxGeometry x="560" y="620" width="120" height="40" as="geometry" />
        </mxCell>
        <mxCell id="kr0ckBWHbC9D2FNmbtgN-21" value="Харчова" style="rounded=1;whiteSpace=wrap;html=1;" vertex="1" parent="1">
          <mxGeometry x="400" y="620" width="120" height="40" as="geometry" />
        </mxCell>
        <mxCell id="kr0ckBWHbC9D2FNmbtgN-22" value="Будівельних матеріалів" style="rounded=1;whiteSpace=wrap;html=1;" vertex="1" parent="1">
          <mxGeometry x="400" y="560" width="120" height="40" as="geometry" />
        </mxCell>
        <mxCell id="kr0ckBWHbC9D2FNmbtgN-23" value="Електроенергетика" style="rounded=1;whiteSpace=wrap;html=1;" vertex="1" parent="1">
          <mxGeometry x="400" y="500" width="120" height="40" as="geometry" />
        </mxCell>
        <mxCell id="kr0ckBWHbC9D2FNmbtgN-24" value="Лісова та деревообробна" style="rounded=1;whiteSpace=wrap;html=1;" vertex="1" parent="1">
          <mxGeometry x="400" y="440" width="120" height="40" as="geometry" />
        </mxCell>
      </root>
    </mxGraphModel>
  </diagram>
</mxfile>
